<svg width="187" height="57" viewBox="0 0 187 57" fill="none" xmlns="http://www.w3.org/2000/svg">
<g filter="url(#filter0_d)">
<rect x="4" width="179" height="49" rx="24.5" fill="black"/>
</g>
<path d="M64.9121 32H74.7949V29.6689H67.6836V16.499H64.9121V32ZM82.0352 32.2363C85.5479 32.2363 87.6855 29.9375 87.6855 26.1348V26.1133C87.6855 22.332 85.5371 20.0332 82.0352 20.0332C78.5439 20.0332 76.3848 22.3428 76.3848 26.1133V26.1348C76.3848 29.9375 78.5117 32.2363 82.0352 32.2363ZM82.0352 30.0664C80.1768 30.0664 79.1133 28.6162 79.1133 26.1455V26.124C79.1133 23.6533 80.1768 22.1924 82.0352 22.1924C83.8828 22.1924 84.9463 23.6533 84.9463 26.124V26.1455C84.9463 28.6162 83.8936 30.0664 82.0352 30.0664ZM95.4199 36.125C98.8467 36.125 101.017 34.417 101.017 31.71V20.2588H98.3418V22.1924H98.2021C97.5361 20.8604 96.2686 20.0654 94.6465 20.0654C91.6172 20.0654 89.7695 22.4072 89.7695 25.8018V25.8232C89.7695 29.1533 91.6172 31.4521 94.5928 31.4521C96.2148 31.4521 97.4932 30.7646 98.1699 29.5078H98.3525V31.7529C98.3525 33.2568 97.2891 34.1055 95.4629 34.1055C93.9697 34.1055 93.0781 33.5791 92.8955 32.8271L92.8848 32.7949H90.21L90.1992 32.8271C90.4678 34.8037 92.3262 36.125 95.4199 36.125ZM95.4199 29.3252C93.5615 29.3252 92.5088 27.8965 92.5088 25.8232V25.8018C92.5088 23.7285 93.5615 22.2891 95.4199 22.2891C97.2676 22.2891 98.3955 23.7285 98.3955 25.8018V25.8232C98.3955 27.8965 97.2783 29.3252 95.4199 29.3252ZM105.668 18.293C106.538 18.293 107.258 17.5947 107.258 16.7139C107.258 15.8438 106.538 15.1348 105.668 15.1348C104.787 15.1348 104.067 15.8438 104.067 16.7139C104.067 17.5947 104.787 18.293 105.668 18.293ZM104.325 32H107V20.2588H104.325V32ZM110.287 32H112.962V25.1572C112.962 23.3955 113.95 22.2783 115.54 22.2783C117.162 22.2783 117.903 23.2021 117.903 25.0283V32H120.578V24.4053C120.578 21.6123 119.149 20.0332 116.528 20.0332C114.831 20.0332 113.703 20.7959 113.145 22.0527H112.962V20.2588H110.287V32Z" fill="white"/>
<defs>
<filter id="filter0_d" x="0" y="0" width="187" height="57" filterUnits="userSpaceOnUse" color-interpolation-filters="sRGB">
<feFlood flood-opacity="0" result="BackgroundImageFix"/>
<feColorMatrix in="SourceAlpha" type="matrix" values="0 0 0 0 0 0 0 0 0 0 0 0 0 0 0 0 0 0 127 0"/>
<feOffset dy="4"/>
<feGaussianBlur stdDeviation="2"/>
<feColorMatrix type="matrix" values="0 0 0 0 0 0 0 0 0 0 0 0 0 0 0 0 0 0 0.25 0"/>
<feBlend mode="normal" in2="BackgroundImageFix" result="effect1_dropShadow"/>
<feBlend mode="normal" in="SourceGraphic" in2="effect1_dropShadow" result="shape"/>
</filter>
</defs>
</svg>
